HIERARCHY
ROOT root
{
	OFFSET 0.000000 0.000000 0.000000
	CHANNELS 6 Xposition Yposition Zposition Zrotation Yrotation Xrotation
	JOINT lhip
	{
		OFFSET 0.058581 -0.082280 -0.017664
		CHANNELS 3 Zrotation Yrotation Xrotation
		JOINT lknee
		{
			OFFSET 0.043451 -0.386469 0.008037
			CHANNELS 3 Zrotation Yrotation Xrotation
			JOINT lankle
			{
				OFFSET -0.014790 -0.426874 -0.037428
				CHANNELS 3 Zrotation Yrotation Xrotation
				JOINT ltoe
				{
					OFFSET 0.041054 -0.060286 0.122042
					CHANNELS 3 Zrotation Yrotation Xrotation
					End Site
					{
						OFFSET 0.000000 0.000000 0.000000
					}
				}
			}
		}
	}
	JOINT rhip
	{
		OFFSET -0.060310 -0.090513 -0.013543
		CHANNELS 3 Zrotation Yrotation Xrotation
		JOINT rknee
		{
			OFFSET -0.043257 -0.383688 -0.004843
			CHANNELS 3 Zrotation Yrotation Xrotation
			JOINT rankle
			{
				OFFSET 0.019056 -0.420046 -0.034562
				CHANNELS 3 Zrotation Yrotation Xrotation
				JOINT rtoe
				{
					OFFSET -0.034840 -0.062106 0.130323
					CHANNELS 3 Zrotation Yrotation Xrotation
					End Site
					{
						OFFSET 0.000000 0.000000 0.000000
					}
				}
			}
		}
	}
	JOINT lowerback
	{
		OFFSET 0.004439 0.124404 -0.038385
		CHANNELS 3 Zrotation Yrotation Xrotation
		JOINT upperback
		{
			OFFSET 0.004488 0.137956 0.026820
			CHANNELS 3 Zrotation Yrotation Xrotation
			JOINT chest
			{
				OFFSET -0.002265 0.056032 0.002855
				CHANNELS 3 Zrotation Yrotation Xrotation
				JOINT lowerneck
				{
					OFFSET -0.013390 0.211636 -0.033468
					CHANNELS 3 Zrotation Yrotation Xrotation
					JOINT upperneck
					{
						OFFSET 0.010113 0.088937 0.050410
						CHANNELS 3 Zrotation Yrotation Xrotation
						End Site
						{
							OFFSET 0.000000 0.000000 0.000000
						}
					}
				}
				JOINT lclavicle
				{
					OFFSET 0.071702 0.114000 -0.018898
					CHANNELS 3 Zrotation Yrotation Xrotation
					JOINT lshoulder
					{
						OFFSET 0.122921 0.045205 -0.019046
						CHANNELS 3 Zrotation Yrotation Xrotation
						JOINT lelbow
						{
							OFFSET 0.255332 -0.015649 -0.022946
							CHANNELS 3 Zrotation Yrotation Xrotation
							JOINT lwrist
							{
								OFFSET 0.265709 0.012698 -0.007375
								CHANNELS 3 Zrotation Yrotation Xrotation
								End Site
								{
									OFFSET 0.000000 0.000000 0.000000
								}
							}
						}
					}
				}
				JOINT rclavicle
				{
					OFFSET -0.082954 0.112472 -0.023707
					CHANNELS 3 Zrotation Yrotation Xrotation
					JOINT rshoulder
					{
						OFFSET -0.113228 0.046853 -0.008472
						CHANNELS 3 Zrotation Yrotation Xrotation
						JOINT relbow
						{
							OFFSET -0.260127 -0.014369 -0.031269
							CHANNELS 3 Zrotation Yrotation Xrotation
							JOINT rwrist
							{
								OFFSET -0.269108 0.006794 -0.006027
								CHANNELS 3 Zrotation Yrotation Xrotation
								End Site
								{
									OFFSET 0.000000 0.000000 0.000000
								}
							}
						}
					}
				}
			}
		}
	}
}
MOTION
Frames: 17
Frame Time: 0.033333
-0.193548 0.230483 0.989426 -54.589424 -2.318301 83.796157 -3.377519 -6.362804 -9.883616 -4.094566 -3.241605 6.573077 7.388143 8.767124 -4.061026 0.000000 -0.000000 0.000000 -2.508292 -1.137352 6.382118 2.601421 -1.609270 41.944236 5.329278 -5.484434 -2.535529 0.000000 -0.000000 0.000000 -5.967429 5.842838 3.916048 0.888316 -2.725104 6.375259 -0.327104 -0.048299 3.484235 1.799663 2.192674 6.099933 4.273405 -0.098458 -0.819512 -20.701476 -1.002924 7.316590 -62.223702 -3.549575 10.737703 13.750829 -27.179823 8.836629 3.329812 -3.830378 -9.838559 19.627375 0.762007 5.185298 65.891146 1.744355 12.138067 -20.276900 31.307497 0.254314 5.817620 5.766336 -9.110173 
-0.208998 0.211129 0.991540 -54.248547 -2.902569 84.129667 -4.630345 -7.751712 -7.602613 -4.219224 -3.195593 4.871981 8.387420 10.051324 -4.536710 0.000000 -0.000000 0.000000 -4.671531 -0.975167 0.409165 2.104847 -4.241073 51.987114 5.769259 -6.024666 5.131128 0.000000 -0.000000 0.000000 -6.473199 5.292943 3.332741 0.994869 -2.617777 7.407785 -0.432387 -0.212804 2.464635 1.951832 2.192422 6.683164 4.152408 -0.301262 -1.377431 -20.079196 -2.745032 8.546972 -62.831170 -3.871691 7.851837 13.584545 -27.686427 7.219611 1.626471 -5.095860 -4.640976 18.481600 1.707599 5.455154 66.684578 0.334623 10.011792 -20.655159 32.061698 -1.146467 8.449962 5.405341 -7.125246 
-0.225086 0.193760 0.993082 -53.889138 -2.957519 83.499112 -5.404749 -7.362448 -4.595038 -4.427447 -4.759261 3.826229 9.381540 10.936473 -5.631075 0.000000 -0.000000 0.000000 -5.816377 -1.450237 -4.341250 1.476716 -5.499189 59.932268 4.843687 -8.716914 9.450731 0.000000 -0.000000 0.000000 -6.538508 4.379519 4.079022 1.137277 -2.235435 7.451535 -0.361589 -0.452000 2.696557 1.650964 1.620612 6.326027 4.159996 0.352640 -1.629417 -20.386883 -3.318533 8.538057 -61.895365 -4.394135 7.459589 12.661945 -28.349276 7.100610 2.222931 -5.444832 -3.055276 18.828864 1.975158 5.287217 65.500388 -0.408131 9.823297 -20.578389 32.818372 -2.032472 9.249394 5.485543 -5.637963 
-0.241332 0.177980 0.995532 -52.919398 -2.571975 82.461144 -5.807480 -6.564273 -1.351020 -4.203192 -6.471280 3.112304 9.144371 11.062314 -7.004249 0.000000 -0.000000 0.000000 -5.830284 -1.361360 -7.764379 -0.076764 -7.271539 64.239115 3.834592 -11.454657 5.703876 0.000000 -0.000000 0.000000 -6.374582 3.311615 5.240812 1.352997 -2.192909 7.871106 -0.113638 -0.948642 2.502666 1.760581 1.559182 6.866655 3.923698 0.351355 -2.450930 -20.526354 -3.881698 8.536553 -61.375477 -5.229871 7.592878 12.584011 -28.544892 7.386449 2.570212 -5.738942 -2.428888 19.184686 2.221691 5.177279 64.538367 -0.800037 9.544228 -20.572248 33.185622 -2.327093 8.926748 5.643634 -4.455970 
-0.257168 0.163191 0.998175 -51.660950 -1.834463 81.586256 -5.583424 -5.294927 1.488162 -3.968828 -8.376042 2.641545 8.361895 10.556505 -8.235309 0.000000 -0.000000 0.000000 -5.398107 -1.260596 -10.884413 -0.818557 -8.297122 65.263574 3.361549 -10.791477 2.069085 0.000000 -0.000000 0.000000 -5.803773 2.416120 6.367278 1.571347 -2.423616 7.986192 0.102769 -1.437859 2.248512 1.967551 1.835316 8.038837 4.018375 -0.077749 -3.218127 -20.121076 -4.814252 8.535638 -61.417416 -5.974723 7.716559 12.629063 -28.887616 7.520411 2.607066 -5.715818 -2.055993 19.001436 2.222276 5.230308 64.595282 -1.103562 8.642982 -20.827719 33.288406 -2.171666 8.608609 5.679907 -4.743935 
-0.272851 0.149517 1.000355 -50.233487 -0.847859 80.936936 -4.737862 -3.889222 3.438895 -4.035176 -10.297344 3.215580 7.581248 9.838496 -9.812196 0.000000 -0.000000 0.000000 -4.346969 -0.773632 -13.543456 -0.402147 -8.597221 63.047432 2.862779 -10.218291 -1.779616 0.000000 -0.000000 0.000000 -5.137162 1.419074 7.335870 1.886262 -2.764648 7.825176 0.298476 -1.753131 2.148927 2.168073 2.420907 8.296143 4.571254 -1.227863 -2.761726 -19.668120 -5.721964 8.675658 -61.514769 -7.015957 7.684034 12.707017 -29.234522 7.723920 2.580731 -5.703382 -2.436835 18.684676 2.102240 5.564227 64.913963 -1.245986 7.583442 -20.896498 33.518699 -1.861802 8.070647 5.649184 -6.046331 
-0.287693 0.136559 1.001889 -48.427886 0.008123 80.513067 -3.982479 -2.878235 4.942662 -4.084469 -12.150828 3.974039 6.944084 9.032454 -11.246900 0.000000 -0.000000 0.000000 -3.743353 -0.382776 -15.741688 -0.321691 -9.131737 58.668259 2.652998 -10.922537 -4.218428 0.000000 -0.000000 0.000000 -4.540555 0.383317 8.250204 2.053669 -3.111289 7.537640 0.484963 -2.273506 2.254651 2.125363 1.919919 8.163320 5.118827 -1.795566 -2.644841 -19.586057 -6.176181 8.647965 -61.144570 -8.365568 7.782667 12.696622 -29.824760 7.992530 2.649646 -5.979727 -2.768079 18.643517 2.087871 5.581031 65.018908 -1.561890 7.308455 -20.974496 33.510654 -2.099485 7.727206 5.785263 -6.750788 
-0.302628 0.124124 1.002681 -46.679424 0.683523 80.351301 -3.403234 -2.447101 6.055295 -4.122824 -13.543961 4.816357 6.510195 8.673466 -12.762771 0.000000 -0.000000 0.000000 -3.484742 -0.098476 -17.541672 -0.863271 -9.781428 52.853005 2.674343 -12.795395 -5.671967 0.000000 -0.000000 0.000000 -4.277449 -0.393881 8.665883 2.337452 -3.382162 7.450962 0.858084 -2.867518 2.622880 2.084444 0.882470 8.114535 5.478301 -1.866771 -3.311180 -19.686804 -6.122203 8.727188 -59.607756 -9.695037 8.288622 10.670086 -31.997379 8.414259 4.435210 -5.446766 -3.201791 18.639951 1.778159 5.311822 64.800024 -1.829471 8.190010 -21.009641 33.376656 -2.745183 7.520228 5.562012 -6.973985 
-0.319071 0.112022 1.003015 -45.208638 1.579106 79.440479 -1.931046 -0.006681 7.803399 -4.410977 -16.224668 6.265230 6.052633 7.171561 -14.650616 0.000000 -0.000000 0.000000 -2.447502 -0.967464 -17.781157 -2.010449 -9.011709 45.937395 2.752529 -12.793462 -6.149811 0.000000 -0.000000 0.000000 -3.546778 -1.024454 10.175385 2.341331 -3.296122 6.879163 1.157075 -3.421424 3.278720 2.263246 -0.717482 7.729614 5.438950 -1.654698 -4.366278 -20.576117 -5.387306 7.917816 -57.792596 -11.116361 10.455420 10.002722 -33.436764 10.129821 6.712274 -4.865657 -7.304217 19.357188 0.772215 4.625362 63.820611 -2.139560 9.893025 -20.528634 33.247125 -1.610995 5.959389 5.912869 -8.350869 
-0.334714 0.100165 1.002281 -43.953669 1.684386 79.636410 -1.650759 0.378090 8.676249 -4.476867 -17.213576 6.987346 6.073442 6.779843 -15.845548 0.000000 -0.000000 0.000000 -2.532836 -1.156644 -19.000771 -1.944440 -7.994384 39.063692 3.030919 -12.499604 -5.565753 0.000000 -0.000000 0.000000 -3.627074 -1.176754 10.011557 2.411580 -3.456975 6.927484 1.405671 -3.809438 3.483639 2.468640 -1.338631 7.419524 5.752571 -1.991982 -4.592564 -20.443605 -5.515075 7.942616 -57.866867 -12.677522 10.735494 10.524383 -34.053524 9.915515 7.328273 -5.679909 -7.593368 19.341562 0.409012 4.612692 64.036340 -2.318668 10.101346 -20.290839 32.805158 -1.116464 5.908479 6.045112 -8.290505 
-0.350877 0.088326 1.001163 -42.756277 1.824525 80.041482 -1.146506 0.631387 9.433258 -4.600362 -17.984774 7.479449 5.889112 6.379320 -17.084485 0.000000 -0.000000 0.000000 -2.639563 -1.353370 -20.072329 -1.091456 -6.264417 32.448272 3.866211 -11.249415 -4.522334 0.000000 -0.000000 0.000000 -3.497242 -1.367855 9.549267 2.453232 -3.708841 7.018419 1.439647 -4.051017 3.493375 2.572076 -1.683631 7.308443 6.072144 -2.359538 -4.741886 -20.270826 -5.454513 7.969285 -57.801948 -13.684856 11.023769 10.578773 -35.093934 9.855632 7.598899 -5.887807 -7.840458 19.515622 0.024186 4.748499 64.265826 -2.534956 10.123265 -20.174388 32.267371 -0.937453 5.902648 5.953656 -8.238033 
-0.367711 0.076069 0.999730 -41.597822 1.904052 80.584196 -0.668894 0.839041 10.030859 -4.798636 -18.955307 8.035216 5.733367 6.007497 -18.554169 0.000000 -0.000000 0.000000 -2.951912 -1.336937 -20.742005 0.147495 -4.340145 25.906231 4.531746 -9.370407 -3.833279 0.000000 -0.000000 0.000000 -3.359259 -1.529244 8.679581 2.502407 -3.935765 7.246034 1.419423 -4.281107 3.576093 2.761208 -1.908409 7.182192 6.104813 -2.750260 -4.820578 -20.401011 -5.279181 7.965719 -57.723949 -14.551295 11.467388 10.646366 -35.771301 9.620552 8.122274 -6.482954 -8.027697 19.709991 -0.444259 4.871312 64.343418 -2.655588 10.286016 -19.837248 31.520262 -0.937072 5.552617 5.864382 -8.595305 
-0.385378 0.063917 0.998100 -40.278997 2.105220 81.232597 -0.099222 0.621962 10.531537 -4.929513 -19.961176 8.609553 5.391456 5.802288 -19.927551 0.000000 -0.000000 0.000000 -3.179235 -1.275935 -20.900179 0.987116 -2.762174 19.473783 5.538094 -7.525151 -3.254937 0.000000 -0.000000 0.000000 -3.078010 -1.611720 7.821147 2.608054 -4.272897 7.417748 1.420677 -4.485889 3.461093 2.800014 -2.114612 7.237136 6.305140 -3.199936 -5.155110 -20.506782 -5.096866 7.991115 -57.956743 -15.176804 12.015873 10.691035 -36.034292 9.532471 8.271654 -7.094469 -8.106725 19.935534 -1.052082 4.903685 64.326727 -2.958133 10.199078 -19.456065 30.905387 -0.679246 5.506584 5.804596 -9.050999 
-0.404050 0.051611 0.996004 -39.079446 2.227753 81.844493 0.446278 0.401771 11.027779 -4.968958 -20.547255 9.337876 5.099659 5.514080 -21.052167 0.000000 -0.000000 0.000000 -3.198838 -1.341563 -20.709237 0.960250 -2.243024 13.774551 6.045329 -6.888075 -2.943969 0.000000 -0.000000 0.000000 -2.872892 -1.612153 6.713298 2.667409 -4.567359 7.814738 1.509838 -4.671498 3.514634 2.766441 -2.426149 7.321644 6.387577 -3.193688 -5.798129 -20.533376 -5.042530 8.230743 -58.339621 -15.677213 12.392927 10.732111 -36.154372 9.721830 8.310489 -7.479475 -8.223649 19.941091 -1.422294 4.914078 64.500507 -3.248455 10.093739 -19.388034 30.330616 -0.455776 5.677270 5.746128 -9.305482 
-0.423864 0.038956 0.993174 -37.816808 2.168924 82.442375 0.887817 0.279124 11.345205 -5.036746 -21.082915 10.617350 4.933795 5.307867 -22.270414 0.000000 -0.000000 0.000000 -3.342549 -1.729823 -20.229433 0.940963 -2.318122 9.296787 6.017139 -7.247437 -2.771462 0.000000 -0.000000 0.000000 -2.819591 -1.580698 5.770632 2.630974 -4.831186 8.047557 1.508563 -4.909803 3.425959 2.892012 -2.606276 7.240090 6.669462 -3.037966 -6.504489 -20.775375 -4.689142 8.753292 -58.387745 -15.623653 12.303030 10.614792 -36.980764 10.402304 7.583637 -7.322941 -8.190971 20.117847 -1.819686 4.955365 64.612504 -3.696263 9.853275 -19.326015 29.946887 -0.317735 6.012821 5.619244 -9.520866 
-0.444836 0.026341 0.989434 -36.633980 2.063922 83.164071 1.308454 -0.174540 11.621285 -5.210481 -21.724654 11.825330 4.990823 5.520691 -23.532788 0.000000 -0.000000 0.000000 -3.474641 -1.873387 -19.745827 1.235399 -2.913537 6.704263 6.284430 -7.490036 -2.247157 0.000000 -0.000000 0.000000 -2.859304 -1.629342 4.898014 2.629116 -5.110329 8.036986 1.534311 -5.073111 3.179149 2.906522 -2.833848 7.182897 6.744712 -3.181058 -7.039101 -20.861226 -4.306195 9.026443 -58.428110 -15.154230 12.574005 9.831800 -37.068194 11.284287 7.326446 -7.174368 -8.559660 20.192782 -2.274447 5.098836 64.621074 -4.153390 9.779196 -19.112531 29.675680 -0.044310 5.973494 5.442790 -9.576194 
-0.467859 0.013599 0.985435 -35.805902 1.881026 83.622862 1.965790 -0.538446 12.529576 -5.489755 -22.162323 12.668838 5.272821 5.781045 -24.665918 0.000000 -0.000000 0.000000 -3.494678 -1.852011 -19.355964 1.608099 -2.826383 7.215371 6.989409 -7.313240 1.843075 0.000000 -0.000000 0.000000 -3.089380 -1.614419 4.085525 2.657953 -5.099981 8.071312 1.578806 -5.251838 3.037174 2.892844 -3.252165 6.881042 6.591085 -3.248447 -7.200459 -20.837091 -3.960216 9.284927 -58.882844 -14.722267 12.622684 9.727482 -36.009222 12.076646 6.090444 -7.599316 -8.327209 20.287819 -2.610704 5.156006 64.604821 -4.495946 9.704439 -18.934545 29.120443 -0.020608 6.378915 5.347681 -9.578804 
